# AST/ASF file generated using VICON BodyLanguage
# -----------------------------------------------
:version 1.10
:name VICON
:units
  mass 1.0
  length 0.45
  angle deg
:documentation
   .ast/.asf automatically generated from VICON data using
   VICON BodyBuilder and BodyLanguage model FoxedUp or BRILLIANT.MOD
:root
   order TX TY TZ RX RY RZ
   axis XYZ
   position 0 0 0  
   orientation 0 0 0 
:bonedata
  begin
     id 1 
     name lhipjoint
     direction 0.627412 -0.730575 0.26947 
     length 2.49821 
     axis 0 0 0  XYZ
  end
  begin
     id 2 
     name lfemur
     direction 0.34202 -0.939693 0  
     length 6.89165  
     axis 0 0 20  XYZ
    dof rx ry rz
    limits (-160.0 20.0)
           (-70.0 70.0)
           (-60.0 70.0)
  end
  begin
     id 3 
     name ltibia
     direction 0.34202 -0.939693 0   
     length 7.91287   
     axis 0 0 20   XYZ
    dof rx
    limits (-10.0 170.0)
  end
  begin
     id 4 
     name lfoot
     direction 0.0941675 -0.258723 0.96135   
     length 2.16919   
     axis -90 7.62852e-016 20   XYZ
    dof rx rz
    limits (-45.0 90.0)
           (-70.0 20.0)
  end
  begin
     id 5 
     name ltoes
     direction 1.5347e-011 -4.21941e-011 1   
     length 1.08535   
     axis -90 7.62852e-016 20   XYZ
    dof rx
    limits (-90.0 20.0)
  end
  begin
     id 6 
     name rhipjoint
     direction -0.614241 -0.740361 0.27308   
     length 2.46519  
     axis 0 0 0  XYZ 
  end
  begin
     id 7 
     name rfemur
     direction -0.34202 -0.939693 0   
     length 7.27512   
     axis 0 0 -20   XYZ
    dof rx ry rz
    limits (-160.0 20.0)
           (-70.0 70.0)
           (-70.0 60.0)
  end
  begin
     id 8 
     name rtibia
     direction -0.34202 -0.939693 0   
     length 7.89523   
     axis 0 0 -20   XYZ
    dof rx
    limits (-10.0 170.0)
 end
 begin
     id 9 
     name rfoot
     direction -0.0860444 -0.236405 0.967837   
     length 2.29534  
     axis -90 -7.62852e-016 -20   XYZ
    dof rx rz
    limits (-45.0 90.0)
           (-20.0 70.0)
  end
  begin
     id 10 
     name rtoes
     direction -1.53608e-011 -4.21861e-011 1   
     length 1.14915   
     axis -90 -7.62852e-016 -20   XYZ
    dof rx
    limits (-90.0 20.0)
  end
  begin
     id 11 
     name lowerback
     direction -0.00734074 0.997215 -0.0742143   
     length 2.13469   
     axis 0 0 0   XYZ
    dof rx ry rz
    limits (-20.0 45.0)
           (-30.0 30.0)
           (-30.0 30.0)
  end
  begin
     id 12 
     name upperback
     direction 0.0285728 0.99958 -0.00488656   
     length 2.13416   
     axis 0 0 0   XYZ
    dof rx ry rz
    limits (-20.0 45.0)
           (-30.0 30.0)
           (-30.0 30.0)
  end
  begin
     id 13 
     name thorax
     direction 0.0316844 0.999056 0.0297249   
     length 2.14463   
     axis 0 0 0   XYZ
    dof rx ry rz
    limits (-20.0 45.0)
           (-30.0 30.0)
           (-30.0 30.0)
  end
  begin
     id 14 
     name lowerneck
     direction -0.0281545 0.996802 0.0747864   
     length 1.79004   
     axis 0 0 0   XYZ
    dof rx ry rz
    limits (-20.0 45.0)
           (-30.0 30.0)
           (-30.0 30.0)
  end
  begin
     id 15 
     name upperneck
     direction -0.00100185 0.982732 -0.185031   
     length 1.79988   
     axis 0 0 0   XYZ
    dof rx ry rz
    limits (-20.0 45.0)
           (-30.0 30.0)
           (-30.0 30.0)
  end
  begin
     id 16
     name head
     direction 0.00403747 0.997539 -0.0700022  
     length 1.81696  
     axis 0 0 0   XYZ
    dof rx ry rz
    limits (-20.0 45.0)
           (-30.0 30.0)
           (-30.0 30.0)
  end
  begin
     id 17 
     name lclavicle
     direction 0.959882 0.242905 -0.140082  
     length 3.87755  
     axis 0 0 0   XYZ
    dof ry rz
    limits (-20.0 10.0)
           (0.0 20.0)
  end
  begin
     id 18 
     name lhumerus
     direction 1 -4.4895e-011 3.76166e-027   
     length 5.14601   
     axis 180 -30 -90   XYZ
    dof rx ry rz
    limits (-60.0 90.0)
           (-90.0 90.0)
           (-90.0 90.0)
  end
  begin
     id 19
     name lradius
     direction 1 -4.48966e-011 -3.24039e-027   
     length 3.64452   
     axis 180 -30 -90   XYZ
    dof rx
    limits (-10.0 170.0)
  end
  begin
     id 20
     name lwrist
     direction 1 -4.48999e-011 2.57119e-027   
     length 1.82226   
     axis -1.61769e-015 90 90   XYZ
    dof ry
    limits (-180.0 0.0)
 end
  begin
     id 21 
     name lhand
     direction 1 -4.48961e-011 5.13984e-027   
     length 0.56228   
     axis -3.27988e-015 90 90   XYZ
    dof rx rz
    limits (-90.0 90.0)
           (-45.0 45.0)
  end
  begin
     id 22 
     name lfingers
     direction 1 -4.48991e-011 1.02836e-026   
     length 0.453325   
     axis -6.5598e-015 90 90   XYZ
    dof rx
    limits (0.0 90.0)
  end
  begin
     id 23
     name lthumb
     direction 0.707107 -6.34956e-011 0.707107   
     length 0.650886   
     axis -90 45 2.19363e-014   XYZ
    dof rx rz
    limits (-45.0 45.0)
           (-45.0 45.0)
  end
  begin
     id 24 
     name rclavicle
     direction -0.929201 0.345171 -0.132073   
     length 3.55416  
     axis 0 0 0   XYZ 
    dof ry rz
    limits (-10.0 20.0)
           (-20.0 0.0)
  end
  begin
     id 25 
     name rhumerus
     direction -1 -4.48979e-011 4.53734e-027  
     length 5.33913   
     axis 180 30 90   XYZ
    dof rx ry rz
    limits (-90.0 60.0)
           (-90.0 90.0)
           (-90.0 90.0)
  end
  begin
     id 26 
     name rradius
     direction -1 -4.4896e-011 -2.24007e-027   
     length 3.56478   
     axis 180 30 90   XYZ
    dof rx
    limits (-10.0 170.0)
  end
  begin
     id 27 
     name rwrist
     direction -1 -4.48923e-011 2.56866e-027   
     length 1.78239   
     axis -1.61769e-015 -90 -90   XYZ
    dof ry
    limits (-180.0 0.0)
  end
  begin
     id 28
     name rhand
     direction -1 -4.48914e-011 5.13667e-027   
     length 0.857474   
     axis -3.27988e-015 -90 -90   XYZ
    dof rx rz
    limits (-90.0 90.0)
           (-45.0 45.0)
  end
  begin
     id 29
     name rfingers
     direction -1 -4.49112e-011 1.02998e-026   
     length 0.691318   
     axis -6.5598e-015 -90 -90   XYZ
    dof rx
    limits (0.0 90.0)
  end
  begin
     id 30
     name rthumb
     direction -0.707107 -6.34979e-011 0.707107   
     length 0.992598   
     axis -90 -45 -2.19363e-014   XYZ
    dof rx rz
    limits (-45.0 45.0)
           (-45.0 45.0)
  end
:hierarchy
  begin
    root lhipjoint rhipjoint lowerback
    lhipjoint lfemur
    lfemur ltibia
    ltibia lfoot
    lfoot ltoes
    rhipjoint rfemur
    rfemur rtibia
    rtibia rfoot
    rfoot rtoes
    lowerback upperback
    upperback thorax
    thorax lowerneck lclavicle rclavicle
    lowerneck upperneck
    upperneck head
    lclavicle lhumerus
    lhumerus lradius
    lradius lwrist
    lwrist lhand lthumb
    lhand lfingers
    rclavicle rhumerus
    rhumerus rradius
    rradius rwrist
    rwrist rhand rthumb
    rhand rfingers
  end

#!OML:ASF F:\VICON\USERDATA\INSTALL\Justin4\Justin4.ASF
:FULLY-SPECIFIED
:DEGREES
2262
root -7.92538 16.2084 29.422 -4.88415 -25.0607 -0.162576
lowerback 20.8901 -3.01322 0.84697
upperback 3.18886 -3.22966 7.30258
thorax -7.79495 -1.53812 8.46775
lowerneck -6.06653 9.01056 -3.25323
upperneck 14.2155 12.2447 1.96113
head 4.94725 5.94013 1.82658
rclavicle -1.94809e-014 -4.92986e-014
rhumerus -61.5494 -17.1209 -56.5276
rradius 91.5504
rwrist -29.9122
rhand 13.2723 20.1418
rfingers 7.12502
rthumb 38.223 -365.596
lclavicle -1.94809e-014 -4.92986e-014
lhumerus 21.8434 12.9125 79.6579
lradius 80.5588
lwrist 43.5621
lhand -8.72329 16.6625
lfingers 7.12502
lthumb 17.2128 45.9201
rfemur -26.7819 8.33249 -2.01147
rtibia 57.1045
rfoot -5.6549 7.64713
rtoes -27.8615
lfemur -29.8916 4.43102 -1.23685
ltibia 47.9807
lfoot 1.38882 -15.4015
ltoes -35.7316
2263
root -7.86343 16.2575 29.4594 -4.40005 -24.7626 -0.486991
lowerback 20.9145 -3.26759 0.875572
upperback 2.90437 -3.51762 7.54443
thorax -8.06907 -1.66107 8.83055
lowerneck -5.29264 9.415 -3.70573
upperneck 14.003 12.8021 1.95069
head 4.71096 6.19805 1.86407
rclavicle 3.77691e-014 -8.42847e-014
rhumerus -63.4275 -17.0311 -55.7763
rradius 93.4876
rwrist -28.6643
rhand 13.5836 20.3066
rfingers 7.12502
rthumb 38.5168 -365.35
lclavicle 3.77691e-014 -8.42847e-014
lhumerus 23.4443 8.18098 77.0877
lradius 85.0478
lwrist 40.2822
lhand -7.98435 16.3882
lfingers 7.12502
lthumb 17.9239 45.5823
rfemur -26.9183 9.04494 -2.01694
rtibia 56.727
rfoot -4.28969 7.33907
rtoes -27.647
lfemur -30.2221 4.79659 -1.31377
ltibia 47.6558
lfoot 1.83917 -15.5621
ltoes -34.8585
2264
root -7.80608 16.2875 29.4874 -3.89749 -24.5506 -0.874897
lowerback 19.9193 -3.15594 1.2292
upperback 3.40282 -3.38255 7.64304
thorax -7.02043 -1.65018 8.56397
lowerneck -5.27151 9.54885 -4.14238
upperneck 13.2574 13.0126 1.97703
head 4.44252 6.30155 1.91371
rclavicle -3.77691e-014 6.36111e-015
rhumerus -64.4882 -18.7203 -55.2589
rradius 95.6282
rwrist -26.4886
rhand 13.9319 20.89
rfingers 7.12502
rthumb 38.8453 -364.674
lclavicle -3.77691e-014 6.36111e-015
lhumerus 26.7092 2.59297 74.3051
lradius 89.266
lwrist 36.7055
lhand -6.15236 16.0493
lfingers 7.12502
lthumb 19.6859 45.0725
rfemur -27.2231 9.78744 -1.88074
rtibia 56.4182
rfoot -2.94589 6.71781
rtoes -26.688
lfemur -30.6199 5.36143 -1.324
ltibia 47.4275
lfoot 2.12008 -15.7962
ltoes -34.0501
2265
root -7.74843 16.3394 29.5828 -4.37483 -24.3376 -0.125529
lowerback 20.7244 -3.23269 0.337896
upperback 2.55316 -3.56825 7.6276
thorax -8.30965 -1.65007 9.26535
lowerneck -3.89363 10.009 -4.28978
upperneck 13.3264 13.6104 1.74499
head 4.69544 6.56016 1.9921
rclavicle -2.78299e-015 3.18055e-014
rhumerus -66.9583 -17.4802 -54.5145
rradius 98.6634
rwrist -24.8768
rhand 13.4674 21.1069
rfingers 7.12502
rthumb 38.4071 -364.58
lclavicle -2.78299e-015 3.18055e-014
lhumerus 26.5825 -2.60765 71.4196
lradius 93.9899
lwrist 33.4182
lhand -4.96212 15.9745
lfingers 7.12502
lthumb 20.8298 44.8764
rfemur -26.399 10.2158 -2.88968
rtibia 55.9644
rfoot -2.18419 6.46535
rtoes -26.6681
lfemur -29.9707 5.65205 -2.70132
ltibia 47.1832
lfoot 1.48776 -15.8298
ltoes -33.8766
2266
root -7.69225 16.3655 29.6592 -4.71776 -24.0879 0.176089
lowerback 19.5811 -3.27266 0.415329
upperback 3.25886 -3.73412 7.31541
thorax -6.91975 -1.80395 8.72961
lowerneck -4.29383 10.0844 -4.54263
upperneck 12.9882 13.7556 1.71137
head 4.62902 6.62628 2.03713
rclavicle 6.63941e-014 4.45278e-014
rhumerus -67.353 -18.3988 -55.1661
rradius 102.043
rwrist -23.5231
rhand 12.6964 21.195
rfingers 7.12502
rthumb 37.6791 -364.691
lclavicle 6.63941e-014 4.45278e-014
lhumerus 29.0333 -7.79782 68.2314
lradius 98.2739
lwrist 30.3505
lhand -4.73335 16.6895
lfingers 7.12502
lthumb 21.0496 45.5671
rfemur -25.6578 10.7246 -3.34752
rtibia 55.621
rfoot -1.47497 5.88386
rtoes -27.098
lfemur -29.4883 5.97605 -3.57434
ltibia 47.0322
lfoot 1.15654 -15.6821
ltoes -32.9772
2267
root -7.63644 16.3826 29.7275 -5.07595 -23.6935 0.30565
lowerback 20.1066 -3.70518 -0.472191
upperback 3.16202 -4.44186 7.70674
thorax -7.10085 -2.12119 9.93279
lowerneck -4.89558 10.8508 -5.28916
upperneck 14.1087 14.9302 1.54597
head 4.54155 7.14375 2.03409
rclavicle -1.00585e-013 9.70069e-014
rhumerus -66.7543 -17.2028 -55.4791
rradius 105.366
rwrist -22.8973
rhand 12.8435 21.7193
rfingers 7.12502
rthumb 37.818 -364.129
lclavicle -1.00585e-013 9.70069e-014
lhumerus 28.9806 -11.3658 66.0591
lradius 102.311
lwrist 26.4317
lhand -4.47169 16.9622
lfingers 7.12502
lthumb 21.3009 45.8116
rfemur -24.8341 11.1799 -3.55173
rtibia 55.268
rfoot -0.788653 5.11729
rtoes -27.1734
lfemur -28.9911 6.08798 -4.28801
ltibia 46.8481
lfoot 0.987634 -15.229
ltoes -31.4111
2268
root -7.58061 16.3984 29.802 -5.68904 -23.2354 0.632969
lowerback 20.2497 -4.03422 -1.13736
upperback 2.86165 -4.96419 8.24732
thorax -7.30821 -2.34197 11.1247
lowerneck -3.8642 11.6271 -7.13578
upperneck 13.8898 16.077 1.42018
head 4.6088 7.60812 2.41639
rclavicle 5.12864e-014 -2.22639e-014
rhumerus -66.0588 -16.2145 -54.5793
rradius 108.779
rwrist -23.4235
rhand 13.5371 22.1073
rfingers 7.12502
rthumb 38.4729 -363.562
lclavicle 5.12864e-014 -2.22639e-014
lhumerus 27.8935 -15.2785 65.6453
lradius 105.81
lwrist 21.1158
lhand -2.89469 15.5269
lfingers 7.12502
lthumb 22.815 44.1976
rfemur -23.762 11.6402 -3.91172
rtibia 54.9517
rfoot -0.148391 4.21598
rtoes -26.5591
lfemur -28.2724 5.97557 -5.23898
ltibia 46.6408
lfoot 0.647663 -14.5867
ltoes -30.0815
2269
root -7.52261 16.4307 29.8954 -6.5455 -22.7737 1.27838
lowerback 19.9686 -3.42086 -0.581258
upperback 2.91852 -4.08925 7.45334
thorax -7.36662 -1.92569 9.62474
lowerneck -4.06073 11.2039 -5.39093
upperneck 15.2624 15.4318 1.27118
head 4.76236 7.33585 1.98284
rclavicle -7.39479e-014 5.725e-014
rhumerus -67.1229 -19.4876 -53.538
rradius 112.524
rwrist -23.7241
rhand 14.2515 22.5216
rfingers 7.12502
rthumb 39.1466 -362.956
lclavicle -7.39479e-014 5.725e-014
lhumerus 29.2652 -22.4037 64.4104
lradius 108.839
lwrist 15.7732
lhand -1.45593 14.3933
lfingers 7.12502
lthumb 24.1951 42.8871
rfemur -22.3778 12.0466 -4.56635
rtibia 54.5959
rfoot 0.172778 3.38294
rtoes -25.7991
lfemur -27.2505 5.66233 -6.57011
ltibia 46.3222
lfoot 0.144534 -13.8004
ltoes -29.3273
2270
root -7.46321 16.4793 29.9951 -7.31826 -22.195 1.6749
lowerback 19.2311 -4.00075 -1.03703
upperback 2.87152 -4.95546 7.87426
thorax -6.79802 -2.36493 10.5014
lowerneck -2.66971 11.986 -6.74596
upperneck 14.8134 16.6095 0.283192
head 4.84635 7.79565 1.96645
rclavicle -9.14409e-015 -4.45278e-014
rhumerus -64.8247 -18.2321 -52.8808
rradius 116.135
rwrist -24.3545
rhand 14.8234 22.6795
rfingers 7.12502
rthumb 39.6854 -362.641
lclavicle -9.14409e-015 -4.45278e-014
lhumerus 26.7859 -25.5405 65.5756
lradius 111.881
lwrist 9.56421
lhand -0.860823 14.3244
lfingers 7.12502
lthumb 24.7656 42.7411
rfemur -20.8362 12.3749 -4.87665
rtibia 54.229
rfoot 0.266882 2.83034
rtoes -26.338
lfemur -26.1954 5.0635 -7.66271
ltibia 45.9362
lfoot -0.623826 -13.1102
ltoes -29.6232
2271
root -7.40645 16.5253 30.0817 -7.88702 -21.516 1.90418
lowerback 18.7739 -4.23274 -1.29534
upperback 2.71061 -5.30291 8.21802
thorax -6.60522 -2.53545 11.0869
lowerneck -2.22835 12.4386 -7.56118
upperneck 15.8978 17.3324 -0.18718
head 4.57773 8.0551 1.8148
rclavicle 3.85642e-014 -9.22361e-014
rhumerus -61.8694 -18.7473 -52.6021
rradius 119.388
rwrist -25.0924
rhand 15.0672 22.3742
rfingers 7.12502
rthumb 39.9149 -362.877
lclavicle 3.85642e-014 -9.22361e-014
lhumerus 24.3705 -29.4465 67.4651
lradius 114.632
lwrist 3.53387
lhand -0.937615 14.181
lfingers 7.12502
lthumb 24.692 42.6078
rfemur -19.493 12.6491 -4.9704
rtibia 53.9564
rfoot 0.607454 2.7302
rtoes -26.6292
lfemur -25.3772 4.11079 -8.53974
ltibia 45.537
lfoot -1.11347 -12.3023
ltoes -29.9308
2272
root -7.35196 16.5568 30.1597 -8.30372 -20.6846 2.18522
lowerback 18.4618 -4.40088 -1.71289
upperback 2.33743 -5.57371 8.62888
thorax -6.70741 -2.64181 11.8675
lowerneck -1.8891 12.7993 -8.74089
upperneck 16.5368 17.8995 -0.247988
head 4.61938 8.24085 1.96775
rclavicle 3.85642e-014 3.49861e-014
rhumerus -57.7492 -20.0903 -52.8519
rradius 122.109
rwrist -24.928
rhand 15.1094 22.1508
rfingers 7.12502
rthumb 39.9546 -363.089
lclavicle 3.85642e-014 3.49861e-014
lhumerus 21.0316 -33.6499 70.539
lradius 117.45
lwrist -1.37942
lhand -2.9228 17.6115
lfingers 7.12502
lthumb 22.7881 46.2855
rfemur -18.2461 12.6686 -5.15908
rtibia 53.8783
rfoot 0.643989 3.55562
rtoes -25.9461
lfemur -24.7885 2.62839 -9.44544
ltibia 45.1691
lfoot -1.17727 -11.1993
ltoes -29.6736
